<?xml version="1.0" encoding="UTF-8" standalone="no"?>
<!-- Created with Inkscape (http://www.inkscape.org/) -->

<svg
   xmlns:dc="http://purl.org/dc/elements/1.1/"
   xmlns:cc="http://creativecommons.org/ns#"
   xmlns:rdf="http://www.w3.org/1999/02/22-rdf-syntax-ns#"
   xmlns:svg="http://www.w3.org/2000/svg"
   xmlns="http://www.w3.org/2000/svg"
   xmlns:sodipodi="http://sodipodi.sourceforge.net/DTD/sodipodi-0.dtd"
   xmlns:inkscape="http://www.inkscape.org/namespaces/inkscape"
   id="svg3336"
   version="1.1"
   inkscape:version="0.91 r13725"
   width="596"
   height="842"
   viewBox="0 0 596 842"
   sodipodi:docname="logo_vektorisiert.svg">
  <metadata
     id="metadata3342">
    <rdf:RDF>
      <cc:Work
         rdf:about="">
        <dc:format>image/svg+xml</dc:format>
        <dc:type
           rdf:resource="http://purl.org/dc/dcmitype/StillImage" />
        <dc:title></dc:title>
      </cc:Work>
    </rdf:RDF>
  </metadata>
  <defs
     id="defs3340" />
  <sodipodi:namedview
     pagecolor="#ffffff"
     bordercolor="#666666"
     borderopacity="1"
     objecttolerance="10"
     gridtolerance="10"
     guidetolerance="10"
     inkscape:pageopacity="0"
     inkscape:pageshadow="2"
     inkscape:window-width="640"
     inkscape:window-height="480"
     id="namedview3338"
     showgrid="false"
     inkscape:zoom="1.0071259"
     inkscape:cx="298"
     inkscape:cy="421"
     inkscape:current-layer="svg3336" />
  <path
     style="fill:#35356b;fill-opacity:1"
     d="M 266.13575,649.78168 C 259.287,646.59327 251.29,638.92335 237.89199,622.69309 c -15.70504,-19.02497 -19.45046,-22.12301 -37.28895,-30.84361 -23.25736,-11.3697 -26.03205,-14.41088 -36.3114,-39.79881 -8.38871,-20.71842 -11.98086,-27.81476 -20.36972,-40.24059 -10.56917,-15.65538 -16.49331,-21.13781 -25.9856,-24.04808 -13.64701,-4.18409 -20.346217,-8.08119 -23.969387,-13.9436 -3.05035,-4.93557 -3.86279,-8.34002 -5.50657,-23.07481 -0.79918,-7.1639 -2.1956,-15.32442 -3.10316,-18.13449 -2.25607,-6.98554 -7.74015,-13.92872 -15.45417,-19.56595 -22.41597,-16.38106 -29.30003,-29.28885 -24.20151,-45.37846 7.11053,-22.439 36.75996,-45.17434 85.310857,-65.4168 6.83317,-2.84897 17.77215,-7.90141 24.30885,-11.22765 9.84212,-5.00822 13.11689,-7.29173 19.05256,-13.28547 7.84392,-7.92066 14.24964,-11.66692 28.40294,-16.61091 19.49697,-6.81062 30.92251,-13.80715 59.15959,-36.22689 36.64923,-29.09883 49.73517,-36.68827 64.02578,-37.13298 5.74219,-0.17869 8.70816,-0.83334 12.51473,-2.76228 9.70461,-4.91769 21.70499,-15.23208 36.04735,-30.98284 8.1656,-8.96746 9.69875,-9.38788 18.4658,-5.06368 6.70418,3.30672 22.0121,18.49466 26.80659,26.59649 4.90314,8.28542 5.83361,11.76331 7.08161,26.46946 0.61853,7.28874 2.01446,16.13327 3.10206,19.6545 2.20046,7.12427 7.89673,15.3891 15.91626,23.09323 2.86258,2.75 6.35227,7.25 7.75487,10 1.40259,2.75 5.75299,9.62017 9.66756,15.26705 14.52193,20.94831 15.93049,23.91787 28.01022,59.05153 8.42027,24.49019 12.3499,34.76681 16.19851,42.36167 3.21562,6.34571 2.65335,9.40174 -2.09481,11.38565 -4.41021,1.8427 -7.04453,1.80745 -12.85389,-0.172 -12.71957,-4.33399 -22.12464,-19.25262 -27.48814,-43.6026 -4.6792,-21.24326 -11.66712,-34.4687 -34.27612,-64.87151 -6.7158,-9.03089 -14.08636,-19.34479 -16.37903,-22.91979 -2.29267,-3.575 -6.12107,-8.75 -8.50756,-11.5 -2.84717,-3.28084 -7.56913,-11.70472 -13.73336,-24.5 -5.16686,-10.725 -10.34216,-20.5125 -11.50067,-21.75 -3.62988,-3.87736 -5.32611,-2.90579 -11.34807,6.5 -6.55374,10.23638 -11.61194,15.74296 -19.95699,21.72607 -8.16579,5.85458 -17.56242,16.09121 -21.78717,23.73481 -1.91186,3.45902 -6.00841,12.74201 -9.10345,20.62888 -7.00567,17.85205 -10.74587,25.31391 -18.4964,36.90108 -7.62269,11.39604 -13.99481,17.25916 -18.7575,17.25916 -2.94618,0 -3.60741,-0.4719 -4.85921,-3.46788 -2.30908,-5.52642 -1.83017,-21.86875 1.07058,-36.53212 1.36003,-6.875 2.47451,-13.66776 2.47662,-15.09501 0.005,-3.71197 -3.05314,-6.1692 -6.62858,-5.32526 -5.0815,1.19943 -16.37008,7.61699 -21.48043,12.21163 -8.22929,7.39884 -9.15802,10.04799 -11.86245,33.83677 -3.41819,30.06724 -5.60471,36.91038 -14.64184,45.82443 -6.27827,6.19278 -15.31124,11.62632 -25.88287,15.56917 -11.79357,4.39859 -16.30021,6.91352 -21.54754,12.02457 -6.52103,6.35169 -8.36863,10.20505 -8.36863,17.4537 0,8.03861 1.764,11.03158 12.93594,21.94829 13.09839,12.79915 18.89754,22.59372 25.31832,42.76176 4.08271,12.82401 6.11989,25.72928 6.75468,42.78995 0.86514,23.25172 2.18112,27.23734 14.33482,43.41492 9.75847,12.98934 10.92876,15.16628 15.11906,28.12429 6.68077,20.65946 14.12281,31.95685 36.34703,55.17659 14.93864,15.60781 16.26216,18.16272 10.4571,20.18637 -1.73208,0.60381 -6.79458,1.09343 -11.25,1.08806 -6.50006,-0.008 -9.14818,-0.49738 -13.40135,-2.47742 z M 382.4015,636.89387 c -7.0872,-7.39661 -9.35611,-17.99815 -5.47857,-25.59876 2.62577,-5.14693 4.27424,-6.18336 19.15906,-12.04575 13.55571,-5.33891 16.59303,-5.85303 20.28543,-3.43368 2.25657,1.47856 3.15128,1.14844 20.27545,-7.48097 9.8531,-4.96528 20.36243,-10.78244 23.35408,-12.92703 l 5.43937,-3.89926 5.7614,-18.93766 c 11.04611,-36.30843 11.15514,-36.84459 11.14403,-54.80189 -0.009,-14.78731 -0.221,-16.64424 -2.79497,-24.5 -5.17594,-15.79694 -12.73247,-27.2442 -27.54435,-41.72646 -30.02318,-29.35505 -64.52597,-40.55422 -101.0376,-32.79554 -33.61135,7.14236 -60.25523,24.10446 -80.14485,51.022 -9.57762,12.96185 -10.22065,13.5 -16.13079,13.5 -10.22719,0 -20.47718,-7.61652 -26.41302,-19.62687 -3.17298,-6.42009 -3.76896,-8.71787 -4.15149,-16.00591 -1.48791,-28.34853 19.11837,-48.2698 50.01242,-48.34986 12.49113,-0.0324 21.63092,2.97317 27.29922,8.97711 5.16696,5.47291 5.27297,5.47277 18.88329,-0.0253 22.99895,-9.29077 49.0078,-13.3148 71.50006,-11.06232 28.43107,2.84721 49.34791,12.0066 68.15131,29.84317 5.36327,5.0875 10.42095,9.25 11.23931,9.25 0.81835,0 4.57899,-1.2105 8.35697,-2.69 5.69124,-2.22875 8.41227,-2.68372 15.86906,-2.65336 14.8475,0.0605 25.75332,5.82179 34.07883,18.00319 6.89269,10.08499 8.84483,16.20118 8.88589,27.84017 0.0319,9.04744 -0.24078,10.56223 -2.86279,15.90231 -4.17664,8.5063 -12.9651,16.74826 -23.0786,21.64348 -4.53619,2.19564 -9.04114,4.8689 -10.011,5.94058 -1.05792,1.16899 -4.25527,11.86299 -7.9922,26.73107 -7.08268,28.17981 -12.6427,46.61076 -16.15022,53.53653 -3.34585,6.60654 -8.60161,10.18854 -31.97699,21.79352 l -20.10708,9.9824 1.03026,3.85986 c 1.61338,6.04455 -0.39779,9.55654 -8.45884,14.77121 -11.84162,7.6603 -18.51692,10.33736 -25.77868,10.33825 -6.27833,7.7e-4 -6.51482,-0.0967 -10.6134,-4.37421 z m -27.96518,-56.97785 c -6.12278,-2.85727 -11.96691,-9.13581 -13.61076,-14.62249 -1.07,-3.57135 -0.97897,-4.70124 0.70636,-8.76778 1.61702,-3.9017 2.83516,-5.13972 7.41953,-7.54066 5.15347,-2.69899 6.08908,-2.85272 15.48487,-2.54438 8.24572,0.27059 10.87688,0.76673 14.99855,2.82816 11.38916,5.69623 12.72164,17.33142 2.96578,25.89717 -8.42589,7.39803 -18.59021,9.12453 -27.96433,4.74998 z m 51.8221,-53.21225 c -3.76923,-1.91535 -15.32372,-13.68105 -15.31836,-15.59835 0.0135,-4.81146 8.44503,-12.36417 17.64607,-15.80672 13.49473,-5.04902 40.31485,-6.86794 39.11149,-2.65251 -0.17627,0.61748 -5.70717,3.82268 -12.29089,7.12268 l -11.97041,6 0.32287,5.26417 c 0.59959,9.7757 -3.03889,15.65929 -10.3341,16.71072 -2.679,0.38611 -5.03228,0.0446 -7.16667,-1.03999 z m -84.9019,-4.57945 c -4.49675,-2.18197 -7.79458,-12.41889 -5.42631,-16.84403 1.69255,-3.16257 -0.49003,-5.05206 -10.99389,-9.51759 -10.21398,-4.34228 -13,-6.06037 -13,-8.01688 0,-2.33536 19.26312,-1.9992 29.76914,0.5195 15.70773,3.76575 26.27114,11.3017 26.21792,18.70389 -0.0137,1.90093 -10.95762,13.20448 -14.67132,15.15339 -2.64303,1.38703 -9.0387,1.38796 -11.89554,0.002 z"
     id="path3346"
     inkscape:connector-curvature="0" />
</svg>
